<?xml version="1.0" encoding="utf-8"?>
<!-- Generated by IcoMoon.io -->
<!DOCTYPE svg PUBLIC "-//W3C//DTD SVG 1.1//EN" "http://www.w3.org/Graphics/SVG/1.1/DTD/svg11.dtd">
<svg version="1.1" xmlns="http://www.w3.org/2000/svg" xmlns:xlink="http://www.w3.org/1999/xlink" width="40" height="40" viewBox="0 0 40 40">
<path d="M38.76 34.039l-9.475-8.058c-0.979-0.881-2.027-1.286-2.873-1.247 2.237-2.62 3.588-6.019 3.588-9.733 0-8.284-6.716-15-15-15s-15 6.716-15 15 6.716 15 15 15c3.715 0 7.114-1.351 9.733-3.588-0.039 0.846 0.366 1.894 1.247 2.873l8.058 9.475c1.38 1.533 3.634 1.662 5.009 0.287s1.246-3.629-0.287-5.009zM15 25c-5.523 0-10-4.477-10-10s4.477-10 10-10 10 4.477 10 10-4.477 10-10 10z"></path>
</svg>
