<?xml version="1.0" encoding="utf-8"?>
<!-- Generated by IcoMoon.io -->
<!DOCTYPE svg PUBLIC "-//W3C//DTD SVG 1.1//EN" "http://www.w3.org/Graphics/SVG/1.1/DTD/svg11.dtd">
<svg version="1.1" xmlns="http://www.w3.org/2000/svg" xmlns:xlink="http://www.w3.org/1999/xlink" width="40" height="40" viewBox="0 0 40 40">
<path d="M20 0.8c-10.604 0-19.2 8.596-19.2 19.2s8.596 19.2 19.2 19.2 19.2-8.596 19.2-19.2-8.596-19.2-19.2-19.2zM25.154 28.282c-0.786 0.376-1.496 0.636-2.132 0.79-0.636 0.148-1.324 0.226-2.062 0.226-0.84 0-1.582-0.11-2.228-0.324s-1.196-0.52-1.652-0.918c-0.456-0.394-0.772-0.82-0.948-1.266-0.176-0.45-0.264-1.098-0.264-1.946v-6.524h-2.032v-2.628c0.718-0.238 1.34-0.578 1.854-1.024 0.514-0.442 0.928-0.972 1.238-1.594 0.312-0.62 0.526-1.414 0.644-2.37h2.614v4.7h4.36v2.916h-4.36v4.77c0 1.078 0.056 1.77 0.17 2.074 0.112 0.308 0.322 0.55 0.63 0.734 0.408 0.246 0.874 0.37 1.394 0.37 0.932 0 1.856-0.308 2.776-0.922v2.936z"></path>
</svg>
