<svg style="position: absolute; width: 0; height: 0;" width="0" height="0" version="1.1" xmlns="http://www.w3.org/2000/svg" xmlns:xlink="http://www.w3.org/1999/xlink">
<defs>
<symbol id="icomoon-facebook-with-circle" viewBox="0 0 40 40">
<title>facebook-with-circle</title>
<path class="path1" d="M20 0.8c-10.604 0-19.2 8.596-19.2 19.2s8.596 19.2 19.2 19.2 19.2-8.596 19.2-19.2-8.596-19.2-19.2-19.2zM24.548 14.068h-2.886c-0.342 0-0.722 0.45-0.722 1.048v2.084h3.61l-0.546 2.972h-3.064v8.922h-3.406v-8.922h-3.090v-2.972h3.090v-1.748c0-2.508 1.74-4.546 4.128-4.546h2.886v3.162z"></path>
</symbol>
<symbol id="icomoon-google-with-circle" viewBox="0 0 40 40">
<title>google-with-circle</title>
<path class="path1" d="M20 0.8c-10.604 0-19.2 8.596-19.2 19.2s8.596 19.2 19.2 19.2 19.2-8.596 19.2-19.2-8.596-19.2-19.2-19.2zM18.894 28.242c-1.206 0.586-2.504 0.648-3.006 0.648-0.096 0-0.15 0-0.15 0s-0.046 0-0.108 0c-0.784 0-4.686-0.18-4.686-3.734 0-3.492 4.25-3.766 5.552-3.766h0.034c-0.752-1.004-0.596-2.016-0.596-2.016-0.066 0.004-0.162 0.008-0.28 0.008-0.49 0-1.436-0.078-2.248-0.602-0.996-0.64-1.5-1.73-1.5-3.238 0-4.262 4.654-4.434 4.7-4.438h4.648v0.102c0 0.52-0.934 0.622-1.57 0.708-0.216 0.032-0.65 0.074-0.772 0.136 1.178 0.63 1.368 1.618 1.368 3.090 0 1.676-0.656 2.562-1.352 3.184-0.432 0.386-0.77 0.688-0.77 1.094 0 0.398 0.464 0.804 1.004 1.278 0.882 0.778 2.092 1.836 2.092 3.622 0 1.846-0.794 3.166-2.36 3.924zM29 20h-3v3h-2v-3h-3v-2h3v-3h2v3h3v2zM16.446 22.3c-0.104 0-0.208 0.004-0.314 0.012-0.888 0.066-1.708 0.398-2.3 0.938-0.588 0.532-0.888 1.204-0.846 1.882 0.090 1.422 1.616 2.254 3.47 2.122 1.824-0.132 3.040-1.184 2.952-2.606-0.084-1.336-1.246-2.348-2.962-2.348zM18.194 14.57c-0.484-1.7-1.264-2.204-2.476-2.204-0.13 0-0.262 0.020-0.388 0.054-0.526 0.15-0.944 0.588-1.176 1.24-0.238 0.66-0.252 1.348-0.048 2.132 0.37 1.402 1.366 2.418 2.37 2.418 0.132 0 0.264-0.016 0.388-0.054 1.098-0.308 1.786-1.984 1.33-3.586z"></path>
</symbol>
<symbol id="icomoon-pinterest-with-circle" viewBox="0 0 40 40">
<title>pinterest-with-circle</title>
<path class="path1" d="M20 0.8c-10.604 0-19.2 8.596-19.2 19.2s8.596 19.2 19.2 19.2 19.2-8.596 19.2-19.2-8.596-19.2-19.2-19.2zM21.314 24.55c-1.232-0.094-1.748-0.704-2.712-1.288-0.53 2.782-1.178 5.45-3.098 6.844-0.594-4.208 0.868-7.364 1.548-10.718-1.158-1.95 0.138-5.872 2.582-4.908 3.006 1.192-2.604 7.25 1.162 8.008 3.932 0.788 5.538-6.824 3.1-9.296-3.524-3.574-10.254-0.082-9.426 5.034 0.2 1.25 1.494 1.63 0.516 3.356-2.254-0.5-2.928-2.278-2.84-4.648 0.138-3.88 3.486-6.598 6.842-6.972 4.246-0.472 8.23 1.558 8.782 5.554 0.618 4.508-1.918 9.386-6.456 9.034z"></path>
</symbol>
<symbol id="icomoon-tumblr-with-circle" viewBox="0 0 40 40">
<title>tumblr-with-circle</title>
<path class="path1" d="M20 0.8c-10.604 0-19.2 8.596-19.2 19.2s8.596 19.2 19.2 19.2 19.2-8.596 19.2-19.2-8.596-19.2-19.2-19.2zM25.154 28.282c-0.786 0.376-1.496 0.636-2.132 0.79-0.636 0.148-1.324 0.226-2.062 0.226-0.84 0-1.582-0.11-2.228-0.324s-1.196-0.52-1.652-0.918c-0.456-0.394-0.772-0.82-0.948-1.266-0.176-0.45-0.264-1.098-0.264-1.946v-6.524h-2.032v-2.628c0.718-0.238 1.34-0.578 1.854-1.024 0.514-0.442 0.928-0.972 1.238-1.594 0.312-0.62 0.526-1.414 0.644-2.37h2.614v4.7h4.36v2.916h-4.36v4.77c0 1.078 0.056 1.77 0.17 2.074 0.112 0.308 0.322 0.55 0.63 0.734 0.408 0.246 0.874 0.37 1.394 0.37 0.932 0 1.856-0.308 2.776-0.922v2.936z"></path>
</symbol>
<symbol id="icomoon-twitter-with-circle" viewBox="0 0 40 40">
<title>twitter-with-circle</title>
<path class="path1" d="M20 0.8c-10.604 0-19.2 8.596-19.2 19.2s8.596 19.2 19.2 19.2 19.2-8.596 19.2-19.2-8.596-19.2-19.2-19.2zM27.81 16.528c0.008 0.164 0.010 0.328 0.010 0.488 0 5-3.802 10.762-10.758 10.762-2.136 0-4.124-0.624-5.796-1.7 0.294 0.036 0.596 0.050 0.902 0.050 1.772 0 3.402-0.602 4.696-1.618-1.654-0.032-3.050-1.124-3.532-2.624 0.23 0.042 0.466 0.066 0.71 0.066 0.344 0 0.68-0.046 0.996-0.132-1.73-0.348-3.034-1.876-3.034-3.708v-0.046c0.51 0.282 1.094 0.454 1.714 0.474-1.016-0.68-1.682-1.836-1.682-3.15 0-0.692 0.186-1.344 0.512-1.902 1.866 2.288 4.65 3.792 7.794 3.954-0.066-0.278-0.098-0.566-0.098-0.864 0-2.086 1.692-3.782 3.782-3.782 1.086 0 2.070 0.46 2.76 1.196 0.862-0.172 1.67-0.484 2.4-0.918-0.282 0.882-0.88 1.624-1.662 2.094 0.766-0.094 1.494-0.296 2.172-0.598-0.506 0.758-1.148 1.426-1.886 1.958z"></path>
</symbol>
<symbol id="icomoon-search" viewBox="0 0 40 40">
<title>search</title>
<path class="path1" d="M38.76 34.039l-9.475-8.058c-0.979-0.881-2.027-1.286-2.873-1.247 2.237-2.62 3.588-6.019 3.588-9.733 0-8.284-6.716-15-15-15s-15 6.716-15 15 6.716 15 15 15c3.715 0 7.114-1.351 9.733-3.588-0.039 0.846 0.366 1.894 1.247 2.873l8.058 9.475c1.38 1.533 3.634 1.662 5.009 0.287s1.246-3.629-0.287-5.009zM15 25c-5.523 0-10-4.477-10-10s4.477-10 10-10 10 4.477 10 10-4.477 10-10 10z"></path>
</symbol>
</defs>
</svg>
